<svg height="75" viewBox="0 0 362 75" width="362" xmlns="http://www.w3.org/2000/svg"><g fill="#3e415c"><path d="m100.388688 25.8585772h9.729181v-11.9508454c0-5.01880053 2.516036-8.48482297 8.398695-8.48482297h14.746224v9.98214467h-10.422143c-1.496805 0-2.245196.831837-2.245196 2.4955361v7.9579876h33.262158v41.2595312h-10.47758v-31.2773866h-22.784578v31.2773866h-10.47758v-31.2773866h-9.729181zm43.09039-20.43566837h10.394424v10.39806737h-10.394424zm30.337968 32.08150377c0 1.3309593.692955 2.2875719 2.078885 2.8698666s3.908285 1.0675329 7.567141 1.4557294c4.213228.4436531 7.650283 1.7052726 10.311269 3.7848965s3.991459 4.9771897 3.991459 8.6927843v.4991072c0 4.1037911-1.496782 7.3756836-4.490391 9.8157756-2.99361 2.440092-7.206774 3.6601197-12.639621 3.6601197-3.215358 0-5.959458-.4159185-8.232384-1.2477681-2.272925-.8318495-4.157762-1.8716459-5.654567-3.1194202-1.496804-1.2477743-2.647109-2.6341694-3.450949-4.1592269-.803839-1.5250575-1.344344-3.0085003-1.62153-4.4503728l9.646026-3.1610125c.443498 1.7746124 1.372057 3.3273749 2.785706 4.6583342 1.413649 1.3309592 3.589526 1.9964289 6.527698 1.9964289 2.605549 0 4.393372-.4020546 5.363523-1.2061758.970152-.8041212 1.45522-1.6775502 1.45522-2.620313 0-.5545663-.124732-1.0675325-.374199-1.538914-.249468-.4713814-.706818-.9150278-1.372064-1.3309526-.665247-.4159247-1.566088-.7625235-2.702551-1.0398067s-2.563949-.4991064-4.282503-.6654763c-4.656725-.3881965-8.357103-1.5943602-11.101245-3.6185274-2.744142-2.0241673-4.116192-5.0049168-4.116192-8.942338v-.4991072c0-2.0518955.443491-3.8542092 1.330486-5.406995s2.051159-2.8698612 3.492527-3.9512656c1.441367-1.0814044 3.104458-1.8993775 4.989324-2.4539439 1.884865-.5545663 3.825138-.8318454 5.820877-.8318454 2.605549 0 4.864581.3188709 6.777165.9566222s3.534098 1.4695884 4.864591 2.4955362 2.411502 2.1627918 3.24306 3.4105661 1.469077 2.453938 1.912574 3.6185274l-9.479715 3.8264888c-.498935-1.4973292-1.358199-2.675765-2.577817-3.5353429-1.219619-.8595779-2.799555-1.2893604-4.739858-1.2893604-1.77399 0-3.104463.3188709-3.991459.9566222-.886995.6377514-1.330486 1.4279966-1.330486 2.3707594zm40.496678 0c0 1.3309593.692955 2.2875719 2.078885 2.8698666s3.908285 1.0675329 7.567141 1.4557294c4.213228.4436531 7.650283 1.7052726 10.311269 3.7848965s3.991459 4.9771897 3.991459 8.6927843v.4991072c0 4.1037911-1.496782 7.3756836-4.490391 9.8157756-2.99361 2.440092-7.206774 3.6601197-12.639621 3.6601197-3.215358 0-5.959458-.4159185-8.232384-1.2477681-2.272925-.8318495-4.157762-1.8716459-5.654567-3.1194202-1.496804-1.2477743-2.647109-2.6341694-3.450949-4.1592269-.803839-1.5250575-1.344344-3.0085003-1.62153-4.4503728l9.646026-3.1610125c.443498 1.7746124 1.372057 3.3273749 2.785706 4.6583342 1.413649 1.3309592 3.589526 1.9964289 6.527698 1.9964289 2.605549 0 4.393372-.4020546 5.363523-1.2061758.970152-.8041212 1.45522-1.6775502 1.45522-2.620313 0-.5545663-.124732-1.0675325-.374199-1.538914-.249468-.4713814-.706818-.9150278-1.372064-1.3309526-.665247-.4159247-1.566088-.7625235-2.702551-1.0398067s-2.563949-.4991064-4.282503-.6654763c-4.656725-.3881965-8.357103-1.5943602-11.101245-3.6185274-2.744142-2.0241673-4.116192-5.0049168-4.116192-8.942338v-.4991072c0-2.0518955.443491-3.8542092 1.330486-5.406995s2.051159-2.8698612 3.492527-3.9512656c1.441367-1.0814044 3.104458-1.8993775 4.989324-2.4539439 1.884865-.5545663 3.825138-.8318454 5.820877-.8318454 2.605549 0 4.864581.3188709 6.777165.9566222s3.534098 1.4695884 4.864591 2.4955362 2.411502 2.1627918 3.24306 3.4105661 1.469077 2.453938 1.912574 3.6185274l-9.479715 3.8264888c-.498935-1.4973292-1.358199-2.675765-2.577817-3.5353429-1.219619-.8595779-2.799555-1.2893604-4.739858-1.2893604-1.77399 0-3.104463.3188709-3.991459.9566222-.886995.6377514-1.330486 1.4279966-1.330486 2.3707594zm39.272292-1.6636908h-9.698094v-9.9821446h20.175673v41.2758527l-10.477579-.0163215zm.093065-30.41781297h10.394424v10.39806737h-10.394424zm62.114175 41.56454117c0 3.4383115-.582082 6.4745168-1.746263 9.108707-1.164182 2.6341902-2.744118 4.8524224-4.739858 6.6547631-1.995739 1.8023407-4.28249 3.1748718-6.86032 4.1176346-2.57783.9427629-5.280354 1.4141372-8.107651 1.4141372-2.827298 0-5.529821-.4713743-8.107651-1.4141372-2.577831-.9427628-4.864581-2.3152939-6.860321-4.1176346-1.995739-1.8023407-3.575676-4.0205729-4.739857-6.6547631s-1.746263-5.6703955-1.746263-9.108707v-.9982145c0-3.3828548.582082-6.3913322 1.746263-9.0255224s2.744118-4.8662864 4.739857-6.6963554c1.99574-1.830069 4.28249-3.2164641 6.860321-4.1592269 2.57783-.9427628 5.280353-1.4141372 8.107651-1.4141372 2.827297 0 5.529821.4713744 8.107651 1.4141372s4.864581 2.3291579 6.86032 4.1592269c1.99574 1.830069 3.575676 4.0621652 4.739858 6.6963554 1.164181 2.6341902 1.746263 5.6426676 1.746263 9.0255224zm-21.454092 11.3130973c1.496804 0 2.910432-.2495512 4.240925-.7486609s2.494657-1.2200352 3.492527-2.162798c.997869-.9427628 1.787838-2.0934708 2.369928-3.4521583.582091-1.3586876.873132-2.8975862.873132-4.6167419v-1.6636908c0-1.7191557-.291041-3.2580543-.873132-4.6167419-.58209-1.3586876-1.372059-2.5093956-2.369928-3.4521584-.99787-.9427628-2.162034-1.6636883-3.492527-2.162798s-2.744121-.7486608-4.240925-.7486608c-1.496805 0-2.910432.2495511-4.240925.7486608s-2.494657 1.2200352-3.492527 2.162798-1.787838 2.0934708-2.369929 3.4521584-.873132 2.8975862-.873132 4.6167419v1.6636908c0 1.7191557.291041 3.2580543.873132 4.6167419.582091 1.3586875 1.372059 2.5093955 2.369929 3.4521583s2.162034 1.6636883 3.492527 2.162798 2.74412.7486609 4.240925.7486609zm39.399115 8.8175611h-10.47758v-41.2595312h10.47758v6.1556558h1.496797c.942433-2.3291787 2.466933-4.1314923 4.573547-5.406995 2.106614-1.2755026 4.573533-1.9132444 7.40083-1.9132444 1.99574 0 3.866718.3188709 5.61299.9566222s3.284631 1.6220919 4.615124 2.9530511c1.330493 1.3309593 2.369925 3.0223614 3.118327 5.0742569.748403 2.0518956 1.122598 4.491951 1.122598 7.3202394v26.1199452h-10.47758v-23.4580399c0-2.9392018-.706813-5.2544816-2.120462-6.945909s-3.450936-2.5371285-6.111922-2.5371285c-3.104483 0-5.418952 1.0397964-6.943475 3.1194202-1.524524 2.0796239-2.286774 4.8662781-2.286774 8.3600462z"/><path d="m23.5742168 60.955694c1.5771036-3.0862122 4.7865419-5.1990337 8.4892831-5.1990337 5.262292 0 9.5282225 4.2674256 9.5282225 9.5315617 0 5.2641362-4.2659305 9.5315618-9.5282225 9.5315618-3.7027412 0-6.9121795-2.1128215-8.4892831-5.1990337h-8.8347577c-8.13263309 0-14.72543479-6.5951122-14.72543479-14.7305954s6.5928017-14.7305954 14.72543479-14.7305954h20.7582159l-3.5055762-5.1990337h-17.2526397c-8.13263309 0-14.72543479-6.5951122-14.72543479-14.7305954 0-8.1354831 6.5928017-14.73059535 14.72543479-14.73059535 4.7155931 0 8.662299 1.82137973 11.5238372 5.56122335.1866331.2439174.903725 1.2845631 2.5931092 3.7540648l7.7408874 11.4808465h26.6494806c3.3487313 0 6.0634144-2.7156344 6.0634144-6.0655393 0-3.3499048-2.7146831-6.0655392-6.0634144-6.0655392h-8.8347577c-1.5771036 3.0862121-4.7865418 5.1990336-8.4892831 5.1990336-5.262292 0-9.5282225-4.2674255-9.5282225-9.53156169s4.2659305-9.53156173 9.5282225-9.53156173c3.7027413 0 6.9121795 2.11282151 8.4892831 5.19903367h8.8347577c8.1326331 0 14.7254348 6.59511225 14.7254348 14.73059535 0 8.1354832-6.5928017 14.7305954-14.7254348 14.7305954h-20.807122l3.5054152 5.1990337h17.3017068c8.1326331 0 14.7254348 6.5951122 14.7254348 14.7305954s-6.5928017 14.7305954-14.7254348 14.7305954c-4.5017469 0-8.6780764-2.0390455-11.6197725-5.6913217l-2.14253-3.026397-8.1441689-12.078416h-26.600843c-3.3487313 0-6.06341435 2.7156345-6.06341435 6.0655393s2.71468305 6.0655393 6.06341435 6.0655393zm33.0344752-4.9804486 1.9194061 2.7245712c1.1480037 1.4198785 2.8602788 2.2558774 4.7186754 2.2558774 3.3487313 0 6.0634144-2.7156345 6.0634144-6.0655393s-2.7146831-6.0655393-6.0634144-6.0655393h-11.4593481zm-34.9169674-36.2909507c-1.3624245-1.9914187-2.2731584-3.3130783-2.3068102-3.3570589-1.1682567-1.5268352-2.5464113-2.1628448-4.6454553-2.1628448-3.3487313 0-6.06341435 2.7156344-6.06341435 6.0655392 0 3.3499049 2.71468305 6.0655393 6.06341435 6.0655393h11.4100126z"/></g></svg>
