<svg version="1" xmlns="http://www.w3.org/2000/svg" width="933.333" height="933.333" viewBox="0 0 700.000000 700.000000"><path d="M327.8.5c-.1.1-4.1.5-8.8.9-8.7.7-10.5.9-22.5 2.7-11.6 1.8-12.3 1.9-19.2 3.5-18.4 4.2-24.8 5.9-36.9 9.9-45.9 15.3-87 39-122.9 70.9-35.8 31.8-67.4 74.6-85.7 115.9-2.7 6.2-5.3 12.1-5.8 13.2-4.6 9.5-15 42.7-17.6 56-.2 1.1-1 5.4-1.9 9.5-2.9 14.7-3.6 20-5.2 37-1.5 16.4-.8 59.2 1.2 71.1.2 1.3.6 4.6.9 7.4.9 7.8 2.3 15.6 5.1 28.5 2.3 10.7 8.8 33.3 11.4 39.5.5 1.1 2.6 6.5 4.6 12 6.5 17.2 21.3 46.2 31.4 61.5 8.4 12.7 25.3 34.9 32.6 42.6 24.3 26.1 42.9 42.1 68.2 59 7.7 5.2 14.5 9.4 14.9 9.4.4 0 1.5.6 2.3 1.4 2.9 2.5 30.4 16.1 43.1 21.3 13.8 5.6 34.7 12.6 44.5 14.9.6.1 4.8 1.1 9.5 2.2 11 2.7 20.1 4.4 29.5 5.7 2.2.2 5.6.7 7.5 1 18.6 2.6 69.8 2.7 83.8 0 1.6-.3 10.4-1.5 14.7-2 32.4-4.1 86.9-23.5 116.7-41.5 3.7-2.2 7-4 7.3-4 .3 0 1.1-.5 1.8-1 .7-.6 6.2-4.3 12.2-8.3 25.3-16.8 49.2-37.6 67.8-59.2 3.3-3.9 6.3-7.2 6.7-7.5.4-.3 4.4-5.5 9-11.5 15.1-19.9 27.7-40.5 38.3-62.8 2.6-5.3 4.7-9.9 4.7-10.2 0-.2 1.1-2.8 2.4-5.7 5.7-12.7 15.1-42.1 18.2-57.3 1.7-8.1 5.4-30.1 5.9-35 .4-3.3.9-7.1 1.1-8.5.9-4.7 1.1-52.5.3-60.5-1.5-16.5-2.1-22-2.4-22.5-.2-.3-.6-3-1-6-.9-7.5-6.9-33.7-9.9-43.5C665 182.8 626.8 125 572.8 80c-22.5-18.7-58.2-40.7-81.8-50.5-3.6-1.4-8-3.3-9.8-4.1-11-5-41.9-14.5-58.7-17.9-4.4-.9-8.9-1.9-10-2.1-1.1-.2-3.8-.6-6-.9-2.2-.3-5.1-.7-6.5-1-1.3-.2-5.2-.7-8.6-1.1-3.3-.3-7.4-.8-9-1-3.2-.5-54-1.4-54.6-.9zM397 177c10.9 3.3 21.7 11.3 26.6 19.7l1.8 3.3 24.1.1c26.3 0 29.1.2 38 2.5 11.8 3 23.2 9.5 32.4 18.6 6.5 6.4 10.1 11.6 14 19.9 5.1 11 6.1 15.3 6.6 27.4.9 19.4-6.3 37.9-19.9 51.6-10.5 10.5-20.1 15.9-36.7 20.6-1.3.4-28.2.9-59.7 1l-57.2.4 8.2 12c4.5 6.7 8.7 12.3 9.2 12.5.6.2 22.7.5 49.1.7 53.7.3 52.9.2 68 7.7 17.4 8.7 29.6 23 36.2 42.5 3.5 10.6 4 26.1 1.1 37.3-10.4 40.7-52.5 63.4-93.3 50.4-7.6-2.4-16.9-7.9-24.9-14.6-6.8-5.6-13.7-15.1-50.9-69.9l-8-11.8-69.6.3-69.6.3-5.4 3c-23.2 12.8-19.4 45.9 6.1 53.6 1.8.6 14.7 1 29.1 1l25.8.1 2.2-2.9c16.9-21.7 48.5-25 69-7.2 13.2 11.5 19.2 29.7 15.3 46.3-2.3 9.7-6.9 17.7-13.8 24.2-10.3 9.5-20.3 13.3-33.8 12.9-18-.4-33.7-10.3-41.4-26l-2.6-5.3-27.7-.5c-24.4-.3-28.6-.6-34.3-2.4-32.1-10-52.8-38.1-51.6-70.3.5-14.3 3.8-24.7 11.2-36 12.2-18.6 30.3-29.7 52.9-32.5 1.1-.1 26.2-.3 55.8-.4l53.9-.1-2.9-3.8c-1.5-2-3.2-4.4-3.8-5.3-.5-.9-3.2-4.9-5.9-8.8l-4.9-7.1-46.1-.1c-25.3-.1-47.4-.3-49-.5-1.6-.2-6.1-1.3-10-2.4-19.8-6.1-34.9-18.7-44.1-37-2.9-5.7-4.2-9.4-6.2-17.5-1.2-4.7-1-22.1.3-27.9 6.3-27.8 28-49.1 55.9-55 8.6-1.8 26-1.4 34.5.9 15.7 4.1 29.5 14 39.6 28.5 7.3 10.4 39.7 57.5 42 61 1.3 1.9 3.2 4.6 4.2 5.9l2 2.4h65.8c36.3 0 67.7-.3 69.8-.7 5.7-.9 13.4-5.5 17.2-10.2 8.2-10 8.9-24.4 1.6-34.9-3.3-4.8-10.8-10-16.5-11.6-3.2-.9-29-1.4-48.2-1-2.3.1-3.5.9-4.8 3-7.2 12.3-22.1 20.9-37.1 21.7-36.1 1.8-60.2-34.8-44-66.9 3.2-6.3 12.4-15.7 18.5-18.8 11.4-5.9 24.7-7.3 35.9-3.9z"/><path d="M221.9 243.4c-8.6 3-13.3 7.3-17.5 15.5-4.7 9.5-3.4 21.1 3.3 29.9 3.1 4.1 10.4 8.9 15.8 10.3 3.1.9 54.4 1.7 62.2 1 1-.1-14.1-22.9-30-45.5-3.9-5.5-9.1-9.6-14.1-11.1-6-1.8-14.8-1.9-19.7-.1zM413.9 410.7c1.7 2.8 15.3 22.5 24.8 35.9 12.1 17 18.8 21.1 32.7 20.1 22.3-1.6 34.2-25.7 22.1-44.7-2.6-4-6.3-7.2-12-10.3-3.8-2.1-5.3-2.2-36.3-2.5-30.9-.3-32.3-.2-31.3 1.5z"/></svg>