<?xml version="1.0" standalone="no"?>
<!DOCTYPE svg PUBLIC "-//W3C//DTD SVG 20010904//EN"
 "http://www.w3.org/TR/2001/REC-SVG-20010904/DTD/svg10.dtd">
<svg version="1.0" xmlns="http://www.w3.org/2000/svg"
 width="700.000000pt" height="700.000000pt" viewBox="0 0 700.000000 700.000000"
 preserveAspectRatio="xMidYMid meet">
<metadata>
Created by potrace 1.14, written by Peter Selinger 2001-2017
</metadata>
<g transform="translate(0.000000,700.000000) scale(0.100000,-0.100000)"
fill="#000000" stroke="none">
<path d="M3367 6944 c-1 -1 -53 -5 -116 -9 -62 -4 -121 -8 -130 -10 -9 -1 -41
-6 -71 -10 -348 -44 -716 -153 -1040 -308 -89 -43 -291 -154 -338 -185 -15
-11 -56 -38 -92 -62 -289 -194 -553 -437 -776 -716 -70 -88 -264 -365 -264
-377 0 -2 -22 -42 -48 -88 -200 -347 -372 -866 -408 -1234 -3 -33 -7 -62 -9
-65 -6 -10 -19 -259 -19 -375 0 -126 11 -354 18 -377 3 -7 7 -40 10 -73 29
-294 149 -707 302 -1030 61 -130 247 -453 273 -475 3 -3 22 -27 40 -55 160
-231 410 -494 656 -690 305 -243 657 -436 1030 -565 119 -41 346 -103 417
-114 21 -3 57 -10 80 -15 233 -52 770 -71 990 -36 13 2 50 6 83 10 33 4 94 13
135 21 41 8 91 17 110 20 54 8 285 70 375 100 449 150 885 402 1224 709 437
395 765 887 954 1431 60 173 125 421 142 544 3 25 8 52 10 60 2 8 6 38 10 65
3 28 8 66 10 85 23 178 23 637 0 760 -1 8 -6 41 -9 73 -4 32 -13 92 -21 135
-13 73 -17 92 -30 152 -3 14 -7 34 -9 45 -22 114 -129 440 -193 585 -36 83
-166 336 -179 351 -8 8 -14 19 -14 23 0 4 -13 27 -30 51 -16 24 -30 46 -30 49
0 7 -70 109 -148 216 -178 242 -491 553 -722 716 -30 21 -57 41 -60 44 -14 14
-100 70 -108 70 -6 0 -12 3 -14 8 -10 22 -474 272 -506 272 -5 0 -23 7 -39 15
-167 83 -603 200 -862 230 -30 4 -61 8 -70 10 -56 11 -504 27 -514 19z m1226
-1818 c200 -32 371 -132 492 -286 74 -95 114 -182 154 -334 17 -66 6 -289 -18
-379 -83 -300 -277 -487 -598 -572 -120 -33 -195 -40 -408 -40 -195 0 -296 7
-422 29 l-73 12 -14 -40 c-24 -66 -116 -349 -116 -357 0 -4 24 -13 53 -19 28
-7 58 -17 65 -23 6 -5 12 -7 12 -4 0 14 315 -106 415 -158 l40 -21 53 43 c113
92 239 134 399 134 159 0 305 -62 424 -181 99 -99 149 -190 173 -319 13 -67
14 -176 2 -239 -31 -161 -150 -327 -298 -415 -100 -60 -184 -82 -313 -82 -128
0 -212 22 -311 80 -200 120 -307 311 -313 562 -1 35 -284 169 -479 226 -62 19
-48 38 -116 -153 -107 -302 -230 -578 -315 -706 -52 -80 -95 -115 -206 -169
-114 -56 -228 -81 -357 -79 -90 2 -240 26 -263 44 -5 4 -30 15 -54 24 -69 27
-170 97 -233 162 -148 152 -221 331 -222 539 0 334 154 599 427 734 105 52
238 93 362 110 69 10 488 7 534 -3 14 -3 47 -8 75 -11 28 -3 68 -10 89 -14 22
-6 39 -5 43 1 8 12 134 391 131 393 -1 1 -31 10 -67 20 -128 35 -275 87 -384
137 -61 27 -120 52 -131 54 -13 3 -32 -7 -55 -29 -161 -154 -465 -186 -678
-70 -347 190 -439 634 -195 938 261 324 761 307 992 -35 76 -113 106 -202 112
-335 l3 -60 60 -33 c68 -36 225 -112 233 -112 3 0 46 -15 97 -34 148 -54 142
-55 162 7 22 67 154 415 185 487 49 116 151 307 191 362 39 52 120 115 193
151 123 60 319 87 468 63z"/>
<path d="M4450 5023 c-171 -58 -286 -250 -525 -878 -40 -104 -72 -191 -70
-193 3 -4 66 -12 161 -20 97 -9 355 -7 439 2 302 36 468 146 502 332 8 49 9
148 0 194 -11 60 -55 179 -97 262 -123 243 -268 349 -410 301z"/>
<path d="M2758 2855 c-2 -2 -44 -5 -93 -6 -128 -3 -231 -16 -315 -40 -25 -7
-47 -13 -50 -14 -21 -4 -127 -59 -156 -81 -102 -78 -143 -216 -119 -394 4 -30
11 -59 15 -65 4 -5 10 -23 14 -40 17 -70 107 -248 156 -309 52 -65 77 -89 126
-121 110 -73 217 -53 328 60 85 85 144 185 226 375 18 41 40 93 50 115 40 91
191 487 187 492 -6 5 -90 13 -212 18 -71 4 -135 8 -142 10 -6 2 -13 2 -15 0z"/>
</g>
</svg>
